<?xml version="1.0"?>
<svg width="135" height="40" xmlns="http://www.w3.org/2000/svg" xmlns:svg="http://www.w3.org/2000/svg">
 <g class="layer">
  <title>Layer 1</title>
  <path d="m2.55,15.45l0,0.07l16.87,7.83l16.94,-7.85l0,-0.02l-16.94,-7.85l-16.87,7.82l0,0.01zm6.08,0.04l10.79,-5l10.79,5l-10.79,5l-10.79,-5zm10.79,10.91l-16.87,-7.71l0,2.85l16.87,7.72l16.94,-7.76l0,-2.85l-16.94,7.73l0,0.01zm0,5.79l-16.87,-7.71l0,2.85l16.87,7.73l16.94,-7.76l0,-2.85l-16.94,7.73zm79.08,-11.12a4.88,4.88 0 0 0 -1.31,-3.35a4.35,4.35 0 0 0 -1.4,-1.01a4.1,4.1 0 0 0 -1.71,-0.36c-0.61,0 -1.18,0.12 -1.71,0.36a4.35,4.35 0 0 0 -1.4,1.01a4.88,4.88 0 0 0 -1.29,3.35a4.88,4.88 0 0 0 1.29,3.35a4.35,4.35 0 0 0 1.4,1.01c0.53,0.25 1.1,0.36 1.71,0.36c0.61,0 1.18,-0.12 1.71,-0.36a4.35,4.35 0 0 0 1.4,-1.01a4.88,4.88 0 0 0 1.31,-3.35zm3.85,0c0,1.16 -0.21,2.25 -0.64,3.23a7.88,7.88 0 0 1 -1.76,2.58a8.39,8.39 0 0 1 -2.64,1.71a8.27,8.27 0 0 1 -3.22,0.63c-1.14,0 -2.2,-0.2 -3.2,-0.63a8.3,8.3 0 0 1 -2.61,-1.73a8.03,8.03 0 0 1 -1.77,-2.59c-0.43,-0.99 -0.64,-2.06 -0.64,-3.2c0,-1.13 0.23,-2.19 0.65,-3.18a8.36,8.36 0 0 1 1.77,-2.59a8.2,8.2 0 0 1 2.61,-1.75a8.11,8.11 0 0 1 3.18,-0.63c1.14,0 2.22,0.2 3.22,0.63a8.39,8.39 0 0 1 2.64,1.71a7.84,7.84 0 0 1 1.76,2.59c0.43,1 0.64,2.07 0.64,3.22zm-17.82,7.66c-0.31,0.14 -0.65,0.26 -1.02,0.34a5.22,5.22 0 0 1 -1.19,0.13c-0.57,0 -1.12,-0.07 -1.64,-0.23a3.59,3.59 0 0 1 -1.38,-0.74c-0.39,-0.34 -0.71,-0.78 -0.94,-1.33c-0.23,-0.53 -0.34,-1.2 -0.34,-1.97l0,-18.39l3.92,0l0,17.71c0,0.64 0.13,1.08 0.39,1.33c0.26,0.24 0.56,0.36 0.91,0.36c0.45,0 0.87,-0.14 1.28,-0.4l0,3.16l0,0.02zm-8.26,-15.44l-6.94,18.43c-0.52,1.38 -1.2,2.36 -2.03,2.97c-0.83,0.61 -1.83,0.91 -2.99,0.91a4.75,4.75 0 0 1 -1.2,-0.15l-1.28,-3.59c0.31,0.14 0.62,0.25 0.94,0.33c0.32,0.08 0.62,0.12 0.91,0.12c0.61,0 1.15,-0.13 1.65,-0.42c0.5,-0.27 0.88,-0.8 1.14,-1.53l0.53,-1.56l-5.96,-15.49l4.19,0l3.55,9.97l3.34,-9.97l4.13,0l0.01,-0.02zm-16.16,-2.33l-10.05,0l0,4.98l9.91,0l0,3.37l-9.91,0l0,9.49l-4.06,0l0,-21.42l14.1,0l0,3.56l0.01,0.01z" fill="#ffffff" fill-rule="evenodd" id="svg_1" stroke="#ffffff" stroke-width="0"/>
 </g>
</svg>